<svg viewBox="0 0 465 123" fill="none" xmlns="http://www.w3.org/2000/svg">
<path d="M21.44 3.03999V120H0.960022V3.03999H21.44ZM73.28 21.92H2.56002V3.03999H73.28V21.92ZM64.96 72.16H2.24002V53.76H64.96V72.16Z" fill="white"/>
<path d="M108.541 120H89.1813V0.959991H108.541V120Z" fill="white"/>
<path d="M129.018 120V40.96H148.538V120H129.018ZM138.618 25.12C135.311 25.12 132.484 24 130.138 21.76C127.898 19.4133 126.778 16.5867 126.778 13.28C126.778 9.97332 127.898 7.19999 130.138 4.95999C132.484 2.71999 135.311 1.59999 138.618 1.59999C141.924 1.59999 144.698 2.71999 146.938 4.95999C149.284 7.19999 150.458 9.97332 150.458 13.28C150.458 16.5867 149.284 19.4133 146.938 21.76C144.698 24 141.924 25.12 138.618 25.12Z" fill="white"/>
<path d="M188.385 120H169.025V0.959991H188.385V74.08L219.105 40.96H243.585L213.505 72.32L242.945 120H220.545L199.905 86.72L188.385 98.72V120Z" fill="white"/>
<path d="M283.685 122.08C276.005 122.08 269.392 120.373 263.845 116.96C258.405 113.44 254.138 108.587 251.045 102.4C248.058 96.2133 246.565 89.0133 246.565 80.8C246.565 72.5867 248.058 65.3333 251.045 59.04C254.138 52.64 258.565 47.6267 264.325 44C270.085 40.3733 276.912 38.56 284.805 38.56C290.352 38.56 295.418 39.68 300.005 41.92C304.592 44.0533 308.112 47.0933 310.565 51.04V0.959991H329.925V120H312.005L310.725 107.68C308.378 112.16 304.752 115.68 299.845 118.24C295.045 120.8 289.658 122.08 283.685 122.08ZM288.005 104.16C292.592 104.16 296.538 103.2 299.845 101.28C303.152 99.2533 305.712 96.4267 307.525 92.8C309.445 89.0667 310.405 84.8533 310.405 80.16C310.405 75.36 309.445 71.2 307.525 67.68C305.712 64.0533 303.152 61.2267 299.845 59.2C296.538 57.0667 292.592 56 288.005 56C283.525 56 279.632 57.0667 276.325 59.2C273.018 61.2267 270.458 64.0533 268.645 67.68C266.938 71.3067 266.085 75.4667 266.085 80.16C266.085 84.8533 266.938 89.0133 268.645 92.64C270.458 96.2667 273.018 99.0933 276.325 101.12C279.632 103.147 283.525 104.16 288.005 104.16Z" fill="white"/>
<g clip-path="url(#clip0_22_42)">
<path d="M461.059 0.999992H440.92C439.067 0.999992 437.564 2.50307 437.564 4.35642V9.48257H370.436V4.35642C370.436 2.50307 368.933 0.999992 367.08 0.999992H346.941C345.087 0.999992 343.585 2.50307 343.585 4.35642V119.644C343.585 121.497 345.087 123 346.941 123H367.08C368.933 123 370.436 121.497 370.436 119.644V114.517H437.564V119.644C437.564 121.497 439.067 123 440.92 123H461.059C462.912 123 464.415 121.497 464.415 119.644V4.35642C464.415 2.50307 462.913 0.999992 461.059 0.999992ZM363.723 111.161V116.287H350.298V92.0778H363.723L363.723 111.161ZM363.723 85.3654H350.298V59.9215H363.723L363.723 85.3654ZM363.723 53.2086H350.298V27.7647H363.723L363.723 53.2086ZM363.723 12.839V21.0518H350.298V7.71285H363.723L363.723 12.839ZM437.564 107.805H370.436V43.8754H421.888C423.741 43.8754 425.244 42.3723 425.244 40.5189C425.244 38.6656 423.741 37.1625 421.888 37.1625H370.436V16.1954H437.564V107.805ZM457.702 116.288H444.277V111.161V92.0785H457.702V116.288ZM457.702 85.3654H444.277V59.9215H457.702V85.3654ZM457.702 53.2086H444.277V27.7647H457.702V53.2086ZM457.702 21.0518H444.277V12.839V7.71285H457.702V21.0518Z" fill="white"/>
<path d="M435.194 39.8644C435.151 39.6497 435.087 39.4378 435.003 39.2367C434.919 39.0321 434.815 38.8374 434.694 38.656C434.57 38.4714 434.429 38.3003 434.275 38.1459C434.12 37.9915 433.949 37.8504 433.764 37.7296C433.583 37.609 433.388 37.5047 433.187 37.4208C432.982 37.3369 432.771 37.2735 432.559 37.2295C432.126 37.1422 431.68 37.1422 431.247 37.2295C431.032 37.2735 430.821 37.3369 430.619 37.4208C430.415 37.5047 430.22 37.609 430.039 37.7296C429.854 37.8504 429.683 37.9915 429.528 38.1459C429.374 38.3003 429.233 38.4714 429.112 38.656C428.992 38.8374 428.887 39.0321 428.803 39.2367C428.72 39.4381 428.656 39.6497 428.612 39.8644C428.568 40.0791 428.545 40.3007 428.545 40.5189C428.545 40.7367 428.569 40.9586 428.612 41.173C428.656 41.3882 428.719 41.5995 428.803 41.8006C428.887 42.0053 428.992 42.2 429.112 42.3813C429.233 42.566 429.374 42.7371 429.528 42.8915C429.683 43.0459 429.854 43.187 430.039 43.3078C430.22 43.4286 430.415 43.5327 430.619 43.6166C430.821 43.7005 431.032 43.7643 431.247 43.8079C431.462 43.8515 431.683 43.8751 431.902 43.8751C432.12 43.8751 432.341 43.8515 432.559 43.8079C432.771 43.7643 432.982 43.7005 433.187 43.6166C433.388 43.5327 433.583 43.4286 433.764 43.3078C433.949 43.187 434.121 43.0459 434.275 42.8915C434.429 42.7371 434.57 42.566 434.694 42.3813C434.815 42.2 434.916 42.0053 434.999 41.8006C435.083 41.5993 435.15 41.3882 435.194 41.173C435.234 40.9583 435.258 40.7367 435.258 40.5189C435.258 40.3009 435.234 40.0791 435.194 39.8644Z" fill="white"/>
<path d="M428.194 69.1115C427.785 61.4524 421.591 55.453 414.093 55.453C409.83 55.453 406.305 57.8927 404.025 60.0439C401.77 57.8911 398.256 55.453 393.906 55.453C386.409 55.453 380.215 61.4527 379.805 69.1115C379.558 73.738 381.339 77.0186 382.7 79.0833C384.559 81.9041 389.09 86.11 392.71 89.1052C400.813 95.8097 403.06 95.8097 404.02 95.8097C404.992 95.8097 407.266 95.8097 415.328 89.1166C418.921 86.1334 423.428 81.931 425.303 79.08C426.663 77.0115 428.442 73.7277 428.194 69.1115ZM419.694 75.3924C417.28 79.0636 407.173 87.5418 404.028 88.9794C400.854 87.5206 390.708 79.0357 388.305 75.39C386.935 73.3117 386.398 71.5408 386.508 69.4699C386.724 65.4424 390.042 62.1656 393.906 62.1656C397.228 62.1656 400.306 65.6426 401.204 66.971C401.815 67.891 402.843 68.4469 403.947 68.4655C405.052 68.497 406.097 67.9546 406.739 67.0558C407.711 65.6955 410.926 62.1656 414.093 62.1656C417.957 62.1656 421.275 65.4424 421.491 69.4701C421.603 71.5637 421.083 73.28 419.694 75.3924Z" fill="white"/>
</g>
<defs>
<clipPath id="clip0_22_42">
<rect width="122" height="122" fill="white" transform="translate(343 0.999992)"/>
</clipPath>
</defs>
</svg>
