<svg width="18" height="20" viewBox="0 0 18 20" fill="none" xmlns="http://www.w3.org/2000/svg">
<path d="M6.54429 2.36754L6.06994 2.20943L6.06994 2.20943L6.54429 2.36754ZM6.12876 3.61412L6.33407 4.07003L6.53382 3.98007L6.6031 3.77224L6.12876 3.61412ZM4.9071 4.32071L4.80686 4.81056L5.02186 4.85455L5.19978 4.7261L4.9071 4.32071ZM3.61816 4.05695L3.51792 4.54679L3.51792 4.54679L3.61816 4.05695ZM1.48515 5.01634L1.91816 5.26634L1.91816 5.26634L1.48515 5.01634ZM0.926665 5.98366L1.35968 6.23366L0.926665 5.98366ZM1.16231 8.3106L1.53641 7.97886L1.53641 7.97886L1.16231 8.3106ZM2.0352 9.29497L2.53272 9.34472L2.55449 9.12697L2.4093 8.96323L2.0352 9.29497ZM2.0352 10.705L2.4093 11.0368L2.55449 10.873L2.53272 10.6553L2.0352 10.705ZM1.16231 11.6894L0.788208 11.3577L0.788208 11.3577L1.16231 11.6894ZM0.926664 14.0163L1.35968 13.7663L0.926664 14.0163ZM1.48515 14.9837L1.91816 14.7337L1.91816 14.7337L1.48515 14.9837ZM3.61816 15.9431L3.51792 15.4532L3.51792 15.4532L3.61816 15.9431ZM4.9071 15.6793L5.19978 15.2739L5.02186 15.1454L4.80686 15.1894L4.9071 15.6793ZM6.12876 16.3859L6.6031 16.2278L6.53382 16.0199L6.33407 15.93L6.12876 16.3859ZM6.54429 17.6325L6.06994 17.7906L6.06994 17.7906L6.54429 17.6325ZM11.456 17.6325L10.9816 17.4743L10.9816 17.4743L11.456 17.6325ZM11.8715 16.3859L11.6662 15.93L11.4664 16.0199L11.3972 16.2278L11.8715 16.3859ZM13.0932 15.6793L13.1934 15.1894L12.9784 15.1454L12.8005 15.2739L13.0932 15.6793ZM14.3821 15.9431L14.2819 16.4329L14.2819 16.4329L14.3821 15.9431ZM16.5151 14.9837L16.0821 14.7337L16.0821 14.7337L16.5151 14.9837ZM17.0736 14.0163L17.5066 14.2663L17.5066 14.2663L17.0736 14.0163ZM16.838 11.6894L16.4639 12.0211L16.4639 12.0211L16.838 11.6894ZM15.9651 10.705L15.4676 10.6553L15.4458 10.873L15.591 11.0368L15.9651 10.705ZM15.9651 9.29497L15.591 8.96323L15.4458 9.12697L15.4676 9.34472L15.9651 9.29497ZM16.838 8.3106L17.2121 8.64233L17.2121 8.64233L16.838 8.3106ZM17.0736 5.98366L16.6406 6.23366L16.6406 6.23366L17.0736 5.98366ZM16.5151 5.01634L16.9481 4.76634L16.9481 4.76634L16.5151 5.01634ZM14.3821 4.05695L14.2819 3.5671L14.2819 3.5671L14.3821 4.05695ZM13.0932 4.32071L12.8005 4.7261L12.9784 4.85455L13.1934 4.81056L13.0932 4.32071ZM11.8715 3.61412L11.3972 3.77224L11.4664 3.98007L11.6662 4.07003L11.8715 3.61412ZM11.456 2.36754L10.9816 2.52566L10.9816 2.52566L11.456 2.36754ZM7.01863 2.52566C7.2228 1.91315 7.79601 1.5 8.44165 1.5V0.5C7.36558 0.5 6.41023 1.18858 6.06994 2.20943L7.01863 2.52566ZM6.6031 3.77224L7.01863 2.52566L6.06994 2.20943L5.65442 3.45601L6.6031 3.77224ZM5.19978 4.7261C5.55303 4.47107 5.93279 4.25074 6.33407 4.07003L5.92345 3.15822C5.46006 3.3669 5.02182 3.6212 4.61443 3.91532L5.19978 4.7261ZM3.51792 4.54679L4.80686 4.81056L5.00735 3.83086L3.7184 3.5671L3.51792 4.54679ZM1.91816 5.26634C2.24098 4.7072 2.88538 4.41736 3.51792 4.54679L3.7184 3.5671C2.66417 3.35136 1.59017 3.83443 1.05213 4.76634L1.91816 5.26634ZM1.35968 6.23366L1.91816 5.26634L1.05213 4.76634L0.493653 5.73366L1.35968 6.23366ZM1.53641 7.97886C1.10805 7.49579 1.03686 6.79281 1.35968 6.23366L0.493653 5.73366C-0.0443854 6.66557 0.0742646 7.83721 0.788209 8.64233L1.53641 7.97886ZM2.4093 8.96323L1.53641 7.97886L0.788209 8.64233L1.6611 9.6267L2.4093 8.96323ZM2.50013 10C2.50013 9.77867 2.51118 9.56008 2.53272 9.34472L1.53768 9.24521C1.51284 9.49358 1.50013 9.74538 1.50013 10H2.50013ZM2.53272 10.6553C2.51118 10.4399 2.50013 10.2213 2.50013 10H1.50013C1.50013 10.2546 1.51284 10.5064 1.53768 10.7548L2.53272 10.6553ZM1.53641 12.0211L2.4093 11.0368L1.6611 10.3733L0.788208 11.3577L1.53641 12.0211ZM1.35968 13.7663C1.03685 13.2072 1.10804 12.5042 1.53641 12.0211L0.788208 11.3577C0.0742637 12.1628 -0.0443865 13.3344 0.493652 14.2663L1.35968 13.7663ZM1.91816 14.7337L1.35968 13.7663L0.493652 14.2663L1.05213 15.2337L1.91816 14.7337ZM3.51792 15.4532C2.88538 15.5826 2.24098 15.2928 1.91816 14.7337L1.05213 15.2337C1.59017 16.1656 2.66417 16.6486 3.7184 16.4329L3.51792 15.4532ZM4.80686 15.1894L3.51792 15.4532L3.7184 16.4329L5.00735 16.1691L4.80686 15.1894ZM6.33407 15.93C5.93279 15.7493 5.55303 15.5289 5.19978 15.2739L4.61443 16.0847C5.02182 16.3788 5.46006 16.6331 5.92345 16.8418L6.33407 15.93ZM7.01863 17.4743L6.6031 16.2278L5.65442 16.544L6.06994 17.7906L7.01863 17.4743ZM8.44165 18.5C7.79601 18.5 7.2228 18.0869 7.01863 17.4743L6.06994 17.7906C6.41023 18.8114 7.36558 19.5 8.44165 19.5V18.5ZM9.55861 18.5H8.44165V19.5H9.55861V18.5ZM10.9816 17.4743C10.7775 18.0869 10.2043 18.5 9.55861 18.5V19.5C10.6347 19.5 11.59 18.8114 11.9303 17.7906L10.9816 17.4743ZM11.3972 16.2278L10.9816 17.4743L11.9303 17.7906L12.3458 16.544L11.3972 16.2278ZM12.8005 15.2739C12.4472 15.5289 12.0675 15.7493 11.6662 15.93L12.0768 16.8418C12.5402 16.6331 12.9784 16.3788 13.3858 16.0847L12.8005 15.2739ZM14.4824 15.4532L13.1934 15.1894L12.9929 16.1691L14.2819 16.4329L14.4824 15.4532ZM16.0821 14.7337C15.7593 15.2928 15.1149 15.5826 14.4824 15.4532L14.2819 16.4329C15.3361 16.6486 16.4101 16.1656 16.9481 15.2337L16.0821 14.7337ZM16.6406 13.7663L16.0821 14.7337L16.9481 15.2337L17.5066 14.2663L16.6406 13.7663ZM16.4639 12.0211C16.8922 12.5042 16.9634 13.2072 16.6406 13.7663L17.5066 14.2663C18.0447 13.3344 17.926 12.1628 17.2121 11.3577L16.4639 12.0211ZM15.591 11.0368L16.4639 12.0211L17.2121 11.3577L16.3392 10.3733L15.591 11.0368ZM15.5001 10C15.5001 10.2213 15.4891 10.4399 15.4676 10.6553L16.4626 10.7548C16.4874 10.5064 16.5001 10.2546 16.5001 10H15.5001ZM15.4676 9.34472C15.4891 9.56008 15.5001 9.77867 15.5001 10H16.5001C16.5001 9.74538 16.4874 9.49358 16.4626 9.24521L15.4676 9.34472ZM16.4639 7.97886L15.591 8.96323L16.3392 9.6267L17.2121 8.64233L16.4639 7.97886ZM16.6406 6.23366C16.9634 6.7928 16.8922 7.49579 16.4639 7.97886L17.2121 8.64233C17.926 7.83721 18.0447 6.66557 17.5066 5.73366L16.6406 6.23366ZM16.0821 5.26634L16.6406 6.23366L17.5066 5.73366L16.9481 4.76634L16.0821 5.26634ZM14.4823 4.54679C15.1149 4.41735 15.7593 4.7072 16.0821 5.26634L16.9481 4.76634C16.4101 3.83443 15.3361 3.35136 14.2819 3.5671L14.4823 4.54679ZM13.1934 4.81056L14.4823 4.54679L14.2819 3.5671L12.9929 3.83086L13.1934 4.81056ZM11.6662 4.07003C12.0675 4.25074 12.4472 4.47107 12.8005 4.7261L13.3858 3.91532C12.9784 3.6212 12.5402 3.3669 12.0768 3.15822L11.6662 4.07003ZM10.9816 2.52566L11.3972 3.77224L12.3458 3.45601L11.9303 2.20943L10.9816 2.52566ZM9.55861 1.5C10.2043 1.5 10.7775 1.91315 10.9816 2.52566L11.9303 2.20943C11.59 1.18858 10.6347 0.5 9.55861 0.5V1.5ZM8.44165 1.5H9.55861V0.5H8.44165V1.5Z" fill="#33CCC2"/>
<path fill-rule="evenodd" clip-rule="evenodd" d="M9 11C9.55228 11 10 10.5523 10 10C10 9.44772 9.55228 9 9 9C8.44772 9 8 9.44772 8 10C8 10.5523 8.44772 11 9 11Z" stroke="#33CCC2"/>
</svg>
