<svg width="40" height="40" viewBox="0 0 40 40" fill="none" xmlns="http://www.w3.org/2000/svg">
<g clip-path="url(#clip0_51525_4983)">
<rect width="40" height="40" rx="20" fill="#6750A4"/>
<rect width="40" height="40" fill="white" fill-opacity="0.12"/>
<path d="M27.4298 20.98C27.4698 20.66 27.4998 20.34 27.4998 20C27.4998 19.66 27.4698 19.34 27.4298 19.02L29.5398 17.37C29.7298 17.22 29.7798 16.95 29.6598 16.73L27.6598 13.27C27.5398 13.05 27.2698 12.97 27.0498 13.05L24.5598 14.05C24.0398 13.65 23.4798 13.32 22.8698 13.07L22.4898 10.42C22.4598 10.18 22.2498 10 21.9998 10H17.9998C17.7498 10 17.5398 10.18 17.5098 10.42L17.1298 13.07C16.5198 13.32 15.9598 13.66 15.4398 14.05L12.9498 13.05C12.7198 12.96 12.4598 13.05 12.3398 13.27L10.3398 16.73C10.2098 16.95 10.2698 17.22 10.4598 17.37L12.5698 19.02C12.5298 19.34 12.4998 19.67 12.4998 20C12.4998 20.33 12.5298 20.66 12.5698 20.98L10.4598 22.63C10.2698 22.78 10.2198 23.05 10.3398 23.27L12.3398 26.73C12.4598 26.95 12.7298 27.03 12.9498 26.95L15.4398 25.95C15.9598 26.35 16.5198 26.68 17.1298 26.93L17.5098 29.58C17.5398 29.82 17.7498 30 17.9998 30H21.9998C22.2498 30 22.4598 29.82 22.4898 29.58L22.8698 26.93C23.4798 26.68 24.0398 26.34 24.5598 25.95L27.0498 26.95C27.2798 27.04 27.5398 26.95 27.6598 26.73L29.6598 23.27C29.7798 23.05 29.7298 22.78 29.5398 22.63L27.4298 20.98ZM19.9998 23.5C18.0698 23.5 16.4998 21.93 16.4998 20C16.4998 18.07 18.0698 16.5 19.9998 16.5C21.9298 16.5 23.4998 18.07 23.4998 20C23.4998 21.93 21.9298 23.5 19.9998 23.5Z" fill="white"/>
</g>
<defs>
<clipPath id="clip0_51525_4983">
<rect width="40" height="40" rx="20" fill="white"/>
</clipPath>
</defs>
</svg>
